<svg xmlns="http://www.w3.org/2000/svg" viewBox="0 0 512 512">
  <defs>
    <linearGradient id="bg" x1="0%" y1="0%" x2="100%" y2="100%">
      <stop offset="0%" style="stop-color:#4F46E5"/>
      <stop offset="50%" style="stop-color:#7C3AED"/>
      <stop offset="100%" style="stop-color:#C026D3"/>
    </linearGradient>
    <filter id="shadow" x="-10%" y="-10%" width="120%" height="120%">
      <feDropShadow dx="0" dy="4" stdDeviation="8" flood-color="#00000030"/>
    </filter>
  </defs>
  <!-- 渐变背景 -->
  <rect width="512" height="512" rx="108" fill="url(#bg)"/>
  <!-- 光晕装饰 -->
  <circle cx="380" cy="120" r="160" fill="white" opacity="0.06"/>
  <circle cx="120" cy="400" r="120" fill="white" opacity="0.04"/>
  <!-- 白色清单卡片 -->
  <rect x="120" y="100" width="272" height="320" rx="24" fill="white" filter="url(#shadow)"/>
  <!-- 清单项 1 - 已完成 -->
  <rect x="152" y="148" width="28" height="28" rx="6" fill="#4F46E5"/>
  <polyline points="158,162 166,170 178,154" fill="none" stroke="white" stroke-width="4" stroke-linecap="round" stroke-linejoin="round"/>
  <rect x="200" y="152" width="160" height="20" rx="4" fill="#94A3B8"/>
  <!-- 清单项 2 - 已完成 -->
  <rect x="152" y="208" width="28" height="28" rx="6" fill="#4F46E5"/>
  <polyline points="158,222 166,230 178,214" fill="none" stroke="white" stroke-width="4" stroke-linecap="round" stroke-linejoin="round"/>
  <rect x="200" y="212" width="130" height="20" rx="4" fill="#C7D2FE"/>
  <!-- 清单项 3 - 未完成 -->
  <rect x="152" y="268" width="28" height="28" rx="6" fill="none" stroke="#CBD5E1" stroke-width="3"/>
  <rect x="200" y="272" width="148" height="20" rx="4" fill="#E2E8F0"/>
  <!-- 清单项 4 - 未完成 -->
  <rect x="152" y="328" width="28" height="28" rx="6" fill="none" stroke="#CBD5E1" stroke-width="3"/>
  <rect x="200" y="332" width="110" height="20" rx="4" fill="#E2E8F0"/>
  <!-- 右下角大勾号 -->
  <circle cx="370" cy="370" r="60" fill="#10B981"/>
  <polyline points="342,370 362,390 398,350" fill="none" stroke="white" stroke-width="10" stroke-linecap="round" stroke-linejoin="round"/>
</svg>
